<svg id="exchange_2_" data-name="exchange (2)" xmlns="http://www.w3.org/2000/svg" width="13.319" height="13.319" viewBox="0 0 13.319 13.319">
  <path id="XMLID_17_" d="M12.713,3.027H2.067L4.06,1.033A.605.605,0,0,0,3.2.177L.177,3.2a.605.605,0,0,0,0,.856L3.2,7.087a.605.605,0,1,0,.856-.856L2.067,4.237H12.713a.605.605,0,1,0,0-1.211Z" transform="translate(0 0.001)" fill="#fff"/>
  <path id="XMLID_18_" d="M10.115,150.178a.605.605,0,0,0-.856.856l1.994,1.994H.605a.605.605,0,1,0,0,1.211H11.252l-1.994,1.994a.605.605,0,1,0,.856.856l3.027-3.027a.605.605,0,0,0,0-.856Z" transform="translate(0 -143.946)" fill="#fff"/>
</svg>
