<svg xmlns="http://www.w3.org/2000/svg" width="27.5" height="27.541" viewBox="0 0 27.5 27.541">
  <defs>
    <style>
      .cls-1 {
        fill: #1873b9;
        stroke: #1873b9;
        stroke-width: 0.5px;
      }
    </style>
  </defs>
  <g id="phone-call_1_" data-name="phone-call (1)" transform="translate(-0.096 0.251)">
    <g id="Group_2649" data-name="Group 2649" transform="translate(0.344 0)">
      <path id="Path_17" data-name="Path 17" class="cls-1" d="M21.694,42.592a2.659,2.659,0,0,0-1.929-.885,2.75,2.75,0,0,0-1.952.879l-1.8,1.8c-.148-.08-.3-.154-.439-.228-.205-.1-.4-.2-.565-.3a19.6,19.6,0,0,1-4.7-4.28,11.563,11.563,0,0,1-1.541-2.431c.468-.428.9-.873,1.324-1.3.16-.16.32-.325.479-.485a2.618,2.618,0,0,0,0-3.949L9.014,29.849c-.177-.177-.36-.36-.531-.542-.342-.354-.7-.719-1.073-1.061A2.7,2.7,0,0,0,5.5,27.406a2.8,2.8,0,0,0-1.94.839l-.011.011-1.94,1.957A4.175,4.175,0,0,0,.368,32.867,10,10,0,0,0,1.1,37.1a24.572,24.572,0,0,0,4.366,7.282,26.856,26.856,0,0,0,8.943,7,13.933,13.933,0,0,0,5.022,1.484c.12.006.245.011.36.011a4.3,4.3,0,0,0,3.293-1.415c.006-.011.017-.017.023-.029a12.973,12.973,0,0,1,1-1.033c.245-.234.5-.479.742-.736a2.847,2.847,0,0,0,.862-1.975,2.743,2.743,0,0,0-.879-1.957ZM23.737,48.6c-.006,0-.006.006,0,0-.223.24-.451.457-.7.7a15.007,15.007,0,0,0-1.1,1.141,2.751,2.751,0,0,1-2.146.907c-.086,0-.177,0-.263-.006a12.378,12.378,0,0,1-4.451-1.335,25.35,25.35,0,0,1-8.423-6.6,23.169,23.169,0,0,1-4.109-6.842,8.148,8.148,0,0,1-.639-3.572A2.62,2.62,0,0,1,2.7,31.3l1.946-1.946a1.3,1.3,0,0,1,.867-.405,1.221,1.221,0,0,1,.833.4l.017.017c.348.325.679.662,1.027,1.022.177.183.36.365.542.554L9.487,32.5a1.089,1.089,0,0,1,0,1.769c-.165.165-.325.331-.491.491-.479.491-.936.947-1.432,1.392-.011.011-.023.017-.029.029a1.164,1.164,0,0,0-.3,1.3l.017.051A12.508,12.508,0,0,0,9.1,40.532l.006.006a20.946,20.946,0,0,0,5.068,4.611,7.792,7.792,0,0,0,.7.382c.205.1.4.2.565.3.023.011.046.029.068.04a1.237,1.237,0,0,0,.565.143,1.22,1.22,0,0,0,.867-.394l1.952-1.952a1.291,1.291,0,0,1,.862-.428,1.162,1.162,0,0,1,.822.417l.011.011,3.144,3.144A1.128,1.128,0,0,1,23.737,48.6Z" transform="translate(-0.344 -25.842)"/>
      <path id="Path_18" data-name="Path 18" class="cls-1" d="M245.578,87.454a7.345,7.345,0,0,1,5.981,5.981.766.766,0,0,0,.759.639,1.019,1.019,0,0,0,.131-.011.771.771,0,0,0,.633-.89,8.881,8.881,0,0,0-7.236-7.236.774.774,0,0,0-.89.628A.762.762,0,0,0,245.578,87.454Z" transform="translate(-230.985 -81.022)"/>
      <path id="Path_19" data-name="Path 19" class="cls-1" d="M261.586,11.928A14.623,14.623,0,0,0,249.67.012a.769.769,0,1,0-.251,1.518,13.062,13.062,0,0,1,10.649,10.649.766.766,0,0,0,.759.639,1.019,1.019,0,0,0,.131-.011A.756.756,0,0,0,261.586,11.928Z" transform="translate(-234.598 0)"/>
    </g>
  </g>
</svg>
