<svg id="qr-code_4_" data-name="qr-code (4)" xmlns="http://www.w3.org/2000/svg" width="27.39" height="27.39" viewBox="0 0 27.39 27.39">
  <defs>
    <style>
      .cls-1 {
        fill: #1873b9;
      }
    </style>
  </defs>
  <path id="Path_6" data-name="Path 6" class="cls-1" d="M374.847,7.7a.856.856,0,0,1-.856-.856V2.461a.75.75,0,0,0-.749-.749h-4.387a.856.856,0,1,1,0-1.712h4.387A2.464,2.464,0,0,1,375.7,2.461V6.847A.856.856,0,0,1,374.847,7.7Z" transform="translate(-348.314)"/>
  <path id="Path_7" data-name="Path 7" class="cls-1" d="M.856,7.7A.856.856,0,0,1,0,6.847V2.461A2.464,2.464,0,0,1,2.461,0H6.847a.856.856,0,1,1,0,1.712H2.461a.75.75,0,0,0-.749.749V6.847A.856.856,0,0,1,.856,7.7Z"/>
  <path id="Path_8" data-name="Path 8" class="cls-1" d="M6.847,375.7H2.461A2.464,2.464,0,0,1,0,373.243v-4.387a.856.856,0,1,1,1.712,0v4.387a.75.75,0,0,0,.749.749H6.847a.856.856,0,1,1,0,1.712Z" transform="translate(0 -348.314)"/>
  <path id="Path_9" data-name="Path 9" class="cls-1" d="M373.243,375.7h-4.387a.856.856,0,1,1,0-1.712h4.387a.75.75,0,0,0,.749-.749v-4.387a.856.856,0,1,1,1.712,0v4.387A2.464,2.464,0,0,1,373.243,375.7Z" transform="translate(-348.314 -348.314)"/>
  <path id="Path_10" data-name="Path 10" class="cls-1" d="M70.954,73.415H66.461A2.464,2.464,0,0,1,64,70.954V66.461A2.464,2.464,0,0,1,66.461,64h4.494a2.464,2.464,0,0,1,2.461,2.461v4.494A2.464,2.464,0,0,1,70.954,73.415Zm-4.494-7.7a.75.75,0,0,0-.749.749v4.494a.75.75,0,0,0,.749.749h4.494a.75.75,0,0,0,.749-.749V66.461a.75.75,0,0,0-.749-.749Z" transform="translate(-60.576 -60.576)"/>
  <path id="Path_11" data-name="Path 11" class="cls-1" d="M70.954,281.415H66.461A2.464,2.464,0,0,1,64,278.954v-4.494A2.464,2.464,0,0,1,66.461,272h4.494a2.464,2.464,0,0,1,2.461,2.461v4.494A2.464,2.464,0,0,1,70.954,281.415Zm-4.494-7.7a.75.75,0,0,0-.749.749v4.494a.75.75,0,0,0,.749.749h4.494a.75.75,0,0,0,.749-.749v-4.494a.75.75,0,0,0-.749-.749Z" transform="translate(-60.576 -257.449)"/>
  <path id="Path_12" data-name="Path 12" class="cls-1" d="M278.954,73.415h-4.494A2.464,2.464,0,0,1,272,70.954V66.461A2.464,2.464,0,0,1,274.461,64h4.494a2.464,2.464,0,0,1,2.461,2.461v4.494A2.464,2.464,0,0,1,278.954,73.415Zm-4.494-7.7a.75.75,0,0,0-.749.749v4.494a.75.75,0,0,0,.749.749h4.494a.75.75,0,0,0,.749-.749V66.461a.75.75,0,0,0-.749-.749Z" transform="translate(-257.449 -60.576)"/>
  <path id="Path_13" data-name="Path 13" class="cls-1" d="M280.024,276.28h-2.033v-2.889A1.392,1.392,0,0,0,276.6,272h-3.21A1.392,1.392,0,0,0,272,273.391v3.21a1.392,1.392,0,0,0,1.391,1.391h2.889v2.033a1.392,1.392,0,0,0,1.391,1.391h2.354a1.392,1.392,0,0,0,1.391-1.391v-2.354A1.392,1.392,0,0,0,280.024,276.28Zm-6.312-2.568h2.568v2.568h-2.568ZM279.7,279.7h-1.712v-1.712H279.7Z" transform="translate(-257.449 -257.449)"/>
  <path id="Path_14" data-name="Path 14" class="cls-1" d="M129.712,130.568h-.856a.856.856,0,0,1-.856-.856v-.856a.856.856,0,0,1,.856-.856h.856a.856.856,0,0,1,.856.856v.856A.856.856,0,0,1,129.712,130.568Z" transform="translate(-121.153 -121.153)"/>
  <path id="Path_15" data-name="Path 15" class="cls-1" d="M337.712,130.568h-.856a.856.856,0,0,1-.856-.856v-.856a.856.856,0,0,1,.856-.856h.856a.856.856,0,0,1,.856.856v.856A.856.856,0,0,1,337.712,130.568Z" transform="translate(-318.025 -121.153)"/>
  <path id="Path_16" data-name="Path 16" class="cls-1" d="M129.712,338.568h-.856a.856.856,0,0,1-.856-.856v-.856a.856.856,0,0,1,.856-.856h.856a.856.856,0,0,1,.856.856v.856A.856.856,0,0,1,129.712,338.568Z" transform="translate(-121.153 -318.025)"/>
</svg>
