<svg xmlns="http://www.w3.org/2000/svg" width="27.39" height="32.164" viewBox="0 0 27.39 32.164">
  <defs>
    <style>
      .cls-1 {
        fill: #1873b9;
      }
    </style>
  </defs>
  <g id="surface1" transform="translate(0 0.001)">
    <path id="Path_3" data-name="Path 3" class="cls-1" d="M27.358,8.726V8.7c-.014-.309-.023-.636-.029-1a3.409,3.409,0,0,0-3.21-3.34,13.228,13.228,0,0,1-9-3.795l-.021-.02a2.058,2.058,0,0,0-2.8,0l-.021.02a13.229,13.229,0,0,1-9,3.8A3.409,3.409,0,0,0,.063,7.7c-.005.361-.015.688-.029,1v.058C-.04,12.53-.129,17.223,1.441,21.483a16.2,16.2,0,0,0,3.886,6.053,20.327,20.327,0,0,0,7.6,4.5,2.355,2.355,0,0,0,.312.085,2.3,2.3,0,0,0,.905,0,2.362,2.362,0,0,0,.313-.085,20.341,20.341,0,0,0,7.6-4.5,16.22,16.22,0,0,0,3.886-6.054C27.519,17.206,27.43,12.5,27.358,8.726Zm-3.186,12.1c-1.656,4.49-5.036,7.573-10.334,9.426a.474.474,0,0,1-.06.016.424.424,0,0,1-.166,0,.47.47,0,0,1-.059-.016c-5.3-1.849-8.686-4.931-10.341-9.421C1.765,16.9,1.847,12.6,1.919,8.8V8.774c.015-.327.025-.669.03-1.045A1.515,1.515,0,0,1,3.378,6.247,16.559,16.559,0,0,0,9,5.01a14.7,14.7,0,0,0,4.58-3.077.174.174,0,0,1,.234,0,14.71,14.71,0,0,0,4.58,3.077,16.56,16.56,0,0,0,5.621,1.236A1.515,1.515,0,0,1,25.441,7.73c.006.378.015.72.03,1.044C25.543,12.579,25.623,16.891,24.172,20.826Zm0,0" transform="translate(0)"/>
    <path id="Path_4" data-name="Path 4" class="cls-1" d="M98.414,128.41a8.016,8.016,0,1,0,8.016,8.016A8.025,8.025,0,0,0,98.414,128.41Zm0,14.144a6.129,6.129,0,1,1,6.128-6.129A6.135,6.135,0,0,1,98.414,142.554Zm0,0" transform="translate(-84.719 -120.344)"/>
    <path id="Path_5" data-name="Path 5" class="cls-1" d="M160.017,212.268l-3.723,3.723-1.011-1.011a.944.944,0,0,0-1.335,1.334l1.678,1.678a.944.944,0,0,0,1.334,0l4.391-4.391a.944.944,0,0,0-1.335-1.334Zm0,0" transform="translate(-144.019 -198.674)"/>
  </g>
</svg>
